<svg xmlns="http://www.w3.org/2000/svg" viewBox="0 0 380 362" font-family="Helvetica,Arial,sans-serif"><rect width="380" height="362" fill="#F5F4EF" rx="12"/><rect x="10" y="10" width="220" height="324" fill="#FFFFFF" stroke="#D3D1C7" stroke-width="0.75" rx="10"/><rect x="20" y="20" width="200" height="24" fill="#FFFFFF" stroke="#D3D1C7" stroke-width="0.75" rx="8"/><text x="120" y="36" font-size="10" fill="#5F5E5A" text-anchor="middle">+ New chat</text><text x="20" y="56" font-size="6.5" fill="#993C1D" text-anchor="start" font-family="Courier,monospace">POST /agenttrees/agent1/chat</text><rect x="20" y="62" width="200" height="22" fill="#FFFFFF" stroke="#D3D1C7" stroke-width="0.75" rx="8"/><text x="30" y="77" font-size="10" fill="#888780" text-anchor="start">🔍 Search</text><text x="20" y="100" font-size="8" fill="#888780" text-anchor="start">AGENT1 · RECENT</text><text x="110" y="100" font-size="6.5" fill="#0F6E56" text-anchor="start" font-family="Courier,monospace">GET …/conversations?page=</text><rect x="20" y="106" width="200" height="24" fill="#E6F1FB" stroke="#E6F1FB" stroke-width="0.75" rx="8"/><text x="28" y="122" font-size="10" fill="#185FA5" text-anchor="start">Refund escalation</text><text x="212" y="122" font-size="9" fill="#185FA5" text-anchor="end">2m</text><text x="28" y="150" font-size="10" fill="#2C2C2A" text-anchor="start">Billing dispute</text><text x="200" y="150" font-size="10" fill="#888780" text-anchor="end">⋯</text><text x="210" y="150" font-size="6.5" fill="#993C1D" text-anchor="start" font-family="Courier,monospace">PATCH/DEL</text><rect x="28" y="158" width="74" height="16" fill="#F5F4EF" stroke="#D3D1C7" stroke-width="0.75" rx="8"/><text x="36" y="169" font-size="8" fill="#5F5E5A" text-anchor="start">⑂ 2 forks ▴</text><text x="110" y="169" font-size="6.5" fill="#0F6E56" text-anchor="start" font-family="Courier,monospace">GET …?forks_of=292</text><line x1="40" y1="182" x2="40" y2="220" stroke="#D3D1C7" stroke-width="1"/><text x="48" y="196" font-size="9" fill="#5F5E5A" text-anchor="start">↳ prod · v15</text><text x="48" y="216" font-size="9" fill="#5F5E5A" text-anchor="start">↳ staging · v15</text><text x="28" y="244" font-size="10" fill="#2C2C2A" text-anchor="start">Onboarding help</text><text x="212" y="244" font-size="9" fill="#888780" text-anchor="end">3d</text><text x="28" y="268" font-size="10" fill="#2C2C2A" text-anchor="start">Export questions</text><line x1="20" y1="300" x2="220" y2="300" stroke="#E9E7DF" stroke-width="1"/><text x="30" y="320" font-size="12" fill="#888780" text-anchor="start">⚙  ✓  ▤  ⚙</text><rect x="240" y="10" width="130" height="324" fill="#FFFFFF" stroke="#D3D1C7" stroke-width="0.75" rx="10"/><text x="305" y="177" font-size="10" fill="#888780" text-anchor="middle">chat area</text><text x="10" y="352" font-size="6.5" fill="#0F6E56" text-anchor="start" font-family="Courier,monospace">GET = data in</text><text x="80" y="352" font-size="6.5" fill="#993C1D" text-anchor="start" font-family="Courier,monospace">POST/PUT/DEL = action</text></svg>