<svg xmlns="http://www.w3.org/2000/svg" viewBox="0 0 380 412" font-family="Helvetica,Arial,sans-serif"><rect width="380" height="412" fill="#F5F4EF" rx="12"/><text x="10" y="22" font-size="11" fill="#2C2C2A" font-weight="bold" text-anchor="start">Trace · turn 2 · 4.9s · 6,410 in · 1,240 out</text><text x="10" y="36" font-size="6.5" fill="#993C1D" text-anchor="start" font-family="Courier,monospace">data: GET /agenttrees/agent1/turns/t2/trace (SSE live)</text><rect x="10" y="46" width="120" height="34" fill="#EEEDFE" stroke="#534AB7" stroke-width="0.75" rx="8"/><text x="18" y="60" font-size="9" fill="#3C3489" font-weight="bold" text-anchor="start">Router agent</text><text x="18" y="73" font-size="8" fill="#534AB7" text-anchor="start">0.4s · 900→60</text><line x1="70" y1="80" x2="70" y2="94" stroke="#B4B2A9" stroke-width="1"/><line x1="70" y1="94" x2="200" y2="94" stroke="#B4B2A9" stroke-width="1"/><line x1="70" y1="94" x2="70" y2="102" stroke="#B4B2A9" stroke-width="1"/><line x1="200" y1="94" x2="200" y2="102" stroke="#B4B2A9" stroke-width="1"/><rect x="10" y="102" width="120" height="34" fill="#EEEDFE" stroke="#534AB7" stroke-width="0.75" rx="8"/><text x="18" y="116" font-size="9" fill="#3C3489" font-weight="bold" text-anchor="start">Refunds agent</text><text x="18" y="129" font-size="8" fill="#534AB7" text-anchor="start">3.1s · 2.8k→720</text><rect x="140" y="102" width="120" height="34" fill="#EEEDFE" stroke="#534AB7" stroke-width="0.75" rx="8"/><text x="148" y="116" font-size="9" fill="#3C3489" font-weight="bold" text-anchor="start">Policy agent</text><text x="148" y="129" font-size="8" fill="#534AB7" text-anchor="start">1.2s · 1.9k→380</text><line x1="70" y1="136" x2="70" y2="150" stroke="#B4B2A9" stroke-width="1"/><line x1="200" y1="136" x2="200" y2="150" stroke="#B4B2A9" stroke-width="1"/><rect x="10" y="150" width="120" height="34" fill="#E1F5EE" stroke="#0F6E56" stroke-width="0.75" rx="8"/><text x="18" y="164" font-size="9" fill="#085041" font-weight="bold" text-anchor="start">🔧 lookup_order</text><text x="18" y="177" font-size="8" fill="#0F6E56" text-anchor="start">0.6s · —</text><rect x="140" y="150" width="120" height="34" fill="#FAECE7" stroke="#993C1D" stroke-width="0.75" rx="8"/><text x="148" y="164" font-size="9" fill="#712B13" font-weight="bold" text-anchor="start">LLM · sonnet</text><text x="148" y="177" font-size="8" fill="#993C1D" text-anchor="start">1.0s · 1.9k→380</text><line x1="70" y1="184" x2="70" y2="198" stroke="#B4B2A9" stroke-width="1"/><rect x="10" y="198" width="120" height="34" fill="#FAECE7" stroke="#993C1D" stroke-width="0.75" rx="8"/><text x="18" y="212" font-size="9" fill="#712B13" font-weight="bold" text-anchor="start">LLM · sonnet</text><text x="18" y="225" font-size="8" fill="#993C1D" text-anchor="start">1.8s · 2.1k→660</text><text x="140" y="212" font-size="6.5" fill="#993C1D" text-anchor="start" font-family="Courier,monospace">tap node: GET /spans/{id}/payload</text><rect x="270" y="46" width="100" height="52" fill="#FFFFFF" stroke="#D3D1C7" stroke-width="0.75" rx="8"/><text x="278" y="60" font-size="8" fill="#888780" text-anchor="start">Legend</text><text x="278" y="74" font-size="8" fill="#3C3489" text-anchor="start">■ agent ■ tool</text><text x="278" y="88" font-size="8" fill="#712B13" text-anchor="start">■ llm call</text><text x="10" y="246" font-size="9" fill="#888780" text-anchor="start">Waterfall</text><rect x="10" y="252" width="360" height="132" fill="#FFFFFF" stroke="#D3D1C7" stroke-width="0.75" rx="10"/><text x="84" y="273" font-size="8" fill="#5F5E5A" text-anchor="end">Router</text><rect x="90.0" y="264" width="22.857142857142858" height="11" fill="#534AB7" rx="3"/><text x="117.85714285714286" y="273" font-size="7" fill="#888780" text-anchor="start">0.4s</text><text x="84" y="292" font-size="8" fill="#5F5E5A" text-anchor="end">Refunds ag.</text><rect x="112.85714285714286" y="283" width="177.14285714285714" height="11" fill="#534AB7" rx="3"/><text x="295.0" y="292" font-size="7" fill="#888780" text-anchor="start">3.1s</text><text x="84" y="311" font-size="8" fill="#5F5E5A" text-anchor="end">lookup_order</text><rect x="118.57142857142857" y="302" width="34.285714285714285" height="11" fill="#0F6E56" rx="3"/><text x="157.85714285714286" y="311" font-size="7" fill="#888780" text-anchor="start">0.6s</text><text x="84" y="330" font-size="8" fill="#5F5E5A" text-anchor="end">LLM sonnet</text><rect x="158.57142857142856" y="321" width="102.85714285714285" height="11" fill="#993C1D" rx="3"/><text x="266.4285714285714" y="330" font-size="7" fill="#888780" text-anchor="start">1.8s · 2.1k→660</text><text x="84" y="349" font-size="8" fill="#5F5E5A" text-anchor="end">Policy ag.</text><rect x="112.85714285714286" y="340" width="68.57142857142857" height="11" fill="#534AB7" rx="3"/><text x="186.42857142857144" y="349" font-size="7" fill="#888780" text-anchor="start">1.2s ∥</text><text x="84" y="368" font-size="8" fill="#5F5E5A" text-anchor="end">LLM sonnet</text><rect x="118.57142857142857" y="359" width="57.14285714285714" height="11" fill="#993C1D" rx="3"/><text x="180.71428571428572" y="368" font-size="7" fill="#888780" text-anchor="start">1.0s</text><text x="10" y="402" font-size="6.5" fill="#0F6E56" text-anchor="start" font-family="Courier,monospace">GET = data in</text><text x="80" y="402" font-size="6.5" fill="#993C1D" text-anchor="start" font-family="Courier,monospace">POST/PUT/DEL = action</text></svg>